<?xml version="1.0" encoding="utf-8"?>
<!-- Generator: Adobe Illustrator 14.0.0, SVG Export Plug-In . SVG Version: 6.00 Build 43363)  -->
<!DOCTYPE svg PUBLIC "-//W3C//DTD SVG 1.1//EN" "http://www.w3.org/Graphics/SVG/1.1/DTD/svg11.dtd">
<svg version="1.1" id="Layer_1" xmlns="http://www.w3.org/2000/svg" xmlns:xlink="http://www.w3.org/1999/xlink" x="0px" y="0px"
	 width="595.28px" height="841.89px" viewBox="0 0 595.28 841.89" enable-background="new 0 0 595.28 841.89" xml:space="preserve">
<path fill="#FFFFFF" stroke="#000000" stroke-width="10" d="M166,547l126-335l147,326C439,538,306,604,166,547z"/>
<path d="M209.881,430.331C288.049,557,436.245,531.89,436.245,531.89l-20.478-45.412c0,0-100.392,18.522-193.03-90.328
	l-21.427,56.968"/>
<path d="M439.4,538.447c0,0-128.881,66-273.001,9c0,0-69.042,3.27-34,23.193c5.867,3.336,14.373,4.703,22.443,4.584
	c3.295,3.748,3.975,7.976,12.615,10.317c10.771,2.92,22.448,2.808,28.988,1.29c0,0-1.567,7.046,11.792,9.129
	c17.186,2.68,19.09-3.128,20.021-3.236c0,0,1.416,7.078,11.007,9.183c5.823,1.277,13.846-1.638,18.923-3.924
	c0,0,2.722,6.07,12.986,6.831c7.575,0.562,12.293-3.57,16.123-5.448c4.688,1.908,10.342,6.287,21.167,5.307
	c10.229-0.927,16.98-4.61,20.392-8.714c0,0,7.743,4.992,17.145,4.052c12.267-1.227,15.211-7.359,15.211-7.359
	s6.194,2.724,13.654,1.171c9.161-1.907,10.143-9.758,10.143-9.758s7.699,5.424,13.248,3.68c8.587-2.698,7.278-5.998,9.104-8.43
	c5.526,2.07,11.313,1.575,17.039-0.88c7.468-3.202,6.978-8.241,6.978-8.241s7.859,1.147,12.022-0.29
	c7.131-2.462,8.321-9.582,10.058-12.58c5.106-0.402,13.034,1.211,16.942-4.876C483.4,532.197,439.4,538.447,439.4,538.447z"/>
<path d="M239.343,352.001c71.583,70.22,157.298,92.063,157.298,92.063l-28.846-63.972c0,0-60.887-0.718-116.586-59.642
	L239.343,352.001z"/>
<path d="M189.531,484.438c0,0,9.693,61.729,125.845,84.643c0,0-59.458,6.143-114.065-10.376
	c-16.261-8.049-24.816-39.607-24.816-39.607L189.531,484.438z"/>
<path d="M267.279,277.728c0,0,29.961,42.723,81.674,60.577l-20.756-46.031c0,0-30.957-16.125-49.053-46.095L267.279,277.728z"/>
<g>
	<path d="M313.865,134.447l-17.267,52.168l0.227,0.662l47.726-23.759l7.718,22.515l-52.151,10.847l0.34,0.994l45.404,28.836
		l-16.773,19.068l-36.086-39.429l-0.662,0.227l-5.188,53.947l-22.958-5.45l17.608-51.175l-0.34-0.994l-46.732,23.419l-7.717-22.515
		l50.828-10.392l-0.228-0.663l-45.083-30.057l16.225-18.511l36.417,39.317l0.663-0.227l4.193-53.608L313.865,134.447z"/>
</g>
</svg>
